<?xml version="1.0" encoding="utf-8"?>
<!-- Generator: Adobe Illustrator 19.0.0, SVG Export Plug-In . SVG Version: 6.00 Build 0)  -->
<svg version="1.1" id="Layer_1" xmlns="http://www.w3.org/2000/svg" xmlns:xlink="http://www.w3.org/1999/xlink" x="0px" y="0px"
	 viewBox="0 0 500 500" style="enable-background:new 0 0 500 500;" xml:space="preserve">
<style type="text/css">
	.st0{fill:none;stroke:#231F20;stroke-width:2;stroke-miterlimit:10;}
</style>
<g id="XMLID_2_">
	<path id="XMLID_69_" class="st0" d="M173.6,232.4c-5.8,2.2-12,3.5-18.5,3.1c-19.2-1.3-33.2-11.1-42.3-27.6
		c-10.4-18.8-8.9-37.9,0.4-56.7c6.6-13.2,16.1-23.4,30.3-28.4c22-7.7,47.9,2.4,60,23.3c9.7,16.7,9.2,34.1,2.4,51.6
		c-0.5,1.4-1.1,2.8-2,4.8c32.7-16.6,65.1-18,98.2-0.8c-0.5-1.4-0.9-2.3-1.3-3.2c-4.6-11.6-6.7-23.4-3.7-35.7
		c4.2-17.5,18.9-31,37.1-33.6c25.6-3.6,44.9,7.5,58.9,28c11.9,17.4,13.7,36.6,5.3,56.1c-10.4,24.2-34.6,35-59.7,27.2
		c-1-0.3-2-0.6-3.6-1.1c0.6,1.3,1,2.1,1.4,2.9c8.5,15.8,13.2,32.5,12.6,50.6c-0.2,6.5-1.4,12.9-3.7,19c-0.3,0.8-0.6,1.7-0.6,2.6
		c0.6,10.8-3.3,20.3-9.1,29c-13.4,20.1-32,32.4-55.8,36.7c-1.1,0.2-2.3,1-3.1,1.8c-5.4,5.6-11.4,10.5-19,12.8
		c-8.8,2.7-17.2,1.2-24.7-3.8c-4.9-3.3-9.1-7.6-13.7-11.4c-1-0.8-2.1-1.5-3.3-1.8c-28.1-6.3-47.4-23.3-58.9-49.3
		c-2.3-5.3-3.1-10.9-1.9-16.7c0.2-0.7,0.2-1.5,0.6-2c2.3-3,1.6-6.1,1.1-9.5c-2.6-17.5,1.2-34.1,7.7-50.2
		C167.4,243.9,170.7,238.2,173.6,232.4z M304.5,290c2.4-3.5,5-6.7,6.9-10.3c9.9-18.9,9-38,0.4-57c-5.6-12.4-14.4-21.4-28-25.1
		c-11.7-3.1-21.4,0.9-27.4,11.4c-0.3,0.5-0.6,1-1.1,1.8c-0.6-1.2-1.1-2.1-1.6-3c-5.5-10.3-14.3-14.9-24.8-12.4
		c-4.6,1.1-9.2,2.9-13.3,5.3c-30.7,17.6-39.6,57.9-19.6,87.6c0.5,0.8,1,1.5,1.6,2.5c-5.3,0-10.2-0.5-15,0.1
		c-14,1.7-23.6,12.9-23.4,26.6c0.2,7.5,3.4,13.9,7.2,20.1c11.1,18.5,27.8,29.8,47.7,36.9c0.3,0.1,0.6,0,1,0
		c-1.1-1.8-2.2-3.5-3.2-5.1c0.2-0.1,0.4-0.3,0.6-0.4c0.6,0.6,1.2,1.1,1.9,1.7c6.2,5.4,12.1,11.3,18.7,16.2
		c9.8,7.3,20.3,7.4,30.7,1.1c4-2.4,7.8-5.2,11.4-8.3c4.2-3.7,8-7.9,11.9-11.9c0.2,0.2,0.4,0.3,0.7,0.5c-2,2.7-4,5.5-6.1,8.4
		c0.8-0.1,1.4-0.1,2-0.3c5.7-2.1,11.6-3.6,16.9-6.4c16.4-8.4,29.5-20.3,37.4-37.4c3.3-7.1,4.5-14.5,2.1-22.3
		C336.4,299,322.5,286.7,304.5,290z"/>
	<path id="XMLID_64_" class="st0" d="M304.5,290c17.9-3.3,31.8,9,35.4,20.5c2.4,7.8,1.2,15.2-2.1,22.3c-7.8,17-20.9,29-37.4,37.4
		c-5.3,2.7-11.2,4.3-16.9,6.4c-0.6,0.2-1.2,0.2-2,0.3c2.1-2.9,4.1-5.7,6.1-8.4c-0.2-0.2-0.4-0.3-0.7-0.5c-4,4-7.7,8.2-11.9,11.9
		c-3.5,3.1-7.3,5.9-11.4,8.3c-10.4,6.3-21,6.2-30.7-1.1c-6.6-4.9-12.5-10.8-18.7-16.2c-0.6-0.6-1.2-1.1-1.9-1.7
		c-0.2,0.1-0.4,0.3-0.6,0.4c1.1,1.7,2.1,3.3,3.2,5.1c-0.4,0-0.7,0.1-1,0c-19.9-7.1-36.6-18.5-47.7-36.9c-3.7-6.2-7-12.6-7.2-20.1
		c-0.3-13.7,9.3-24.9,23.4-26.6c4.8-0.6,9.7-0.1,15-0.1c-0.6-0.9-1.1-1.7-1.6-2.5c-20-29.7-11-70,19.6-87.6
		c4.1-2.4,8.7-4.2,13.3-5.3c10.6-2.5,19.3,2.2,24.8,12.4c0.5,0.9,1,1.8,1.6,3c0.5-0.8,0.8-1.3,1.1-1.8c5.9-10.5,15.7-14.5,27.4-11.4
		c13.6,3.6,22.4,12.7,28,25.1c8.6,19,9.5,38.1-0.4,57C309.5,283.4,306.9,286.6,304.5,290z M318.2,312.7c-1.9,2.4-3,4.1-4.4,5.6
		c-3.4,3.6-6.6,7.5-10.4,10.7c-24.2,21-51.5,27.5-82.1,16.7c-14-4.9-25.3-13.7-32.7-26.8c-3-5.4-3.5-4.5,2.2-7.8
		c1.9-1.1,3.8-2.1,6.2-3.3c-9.1-1.1-21.8,9.7-21,17.5c2.7-3.2,5.3-6.2,8.2-9.6c3.8,7.5,8.1,14,13.9,19.1c5.5,4.8,9.1,10.8,12.5,17.1
		c5.3,9.7,11,19.1,19.4,26.6c10.9,9.6,24,10.1,35.6,1.4c7.4-5.5,12.6-13,17.3-20.8c6.6-10.9,13.3-21.5,23.4-29.8
		c5-4.1,8.7-9.8,13.4-15.1c2.6,2.5,5.4,5.2,8.3,8c-0.7-8.7-15.3-17.8-23-14.7C309.2,309.1,313.4,310.8,318.2,312.7z M253.3,291.7
		c-9.6,0-16.9,1.2-23.4,5.5c-6.2,4.1-9.1,10.5-7.5,16.8c1.4,5.6,5.4,9.1,10.4,11.4c7.3,3.3,15,3.5,22.7,2.5
		c5.5-0.7,10.7-2.4,15.3-5.8c4.1-3,7.1-6.8,7.6-12c0.6-6.5-2.9-11.8-9.7-15C263.1,292.4,257.3,291.7,253.3,291.7z M245.2,283.1
		c3.6-13.4,4.2-26.9,2.1-40.5c-0.7-4.7-2.3-9.5-4.4-13.8c-2.2-4.6-7-5.1-10.7-1.5c-2.1,2-4,4.5-5,7.1c-1.8,4.8-3.4,9.8-4,14.8
		c-1.7,13-0.5,25.7,6.9,37.2c0.2,0.3,0.2,0.6,0.3,1.1c-1.4,0.7-2.8,1.4-4.1,2.1c-1.3,0.7-2.6,1.3-3.7,2c-1.1,0.7-2.2,1.7-3.3,2.5
		c20.9-9.1,41.5-12.3,62.5-0.4c0.1-0.2,0.2-0.5,0.3-0.7c-3-2.2-6.1-4.5-9.1-6.8c0.1-0.2,0.2-0.5,0.3-0.7
		c8.3-12.9,11.4-27.1,9.8-42.2c-0.5-5.2-1.7-10.2-4.8-14.5c-3.2-4.4-7.7-4.7-11.3-0.7c-1.7,2-3.2,4.3-4.2,6.7
		c-4.2,9.5-5.5,19.6-5.9,29.9c-0.2,6,0,12,0,18.3C253.3,283.1,249.4,283.1,245.2,283.1z"/>
	<path id="XMLID_61_" class="st0" d="M318.2,312.7c-4.8-1.9-9-3.6-13.1-5.3c7.7-3.1,22.4,6,23,14.7c-2.9-2.8-5.7-5.5-8.3-8
		c-4.7,5.4-8.4,11-13.4,15.1c-10.1,8.3-16.8,18.9-23.4,29.8c-4.7,7.8-9.9,15.2-17.3,20.8c-11.6,8.7-24.7,8.1-35.6-1.4
		c-8.4-7.4-14.1-16.9-19.4-26.6c-3.4-6.3-7-12.2-12.5-17.1c-5.8-5.1-10.1-11.6-13.9-19.1c-2.9,3.4-5.5,6.4-8.2,9.6
		c-0.8-7.8,11.8-18.6,21-17.5c-2.4,1.3-4.3,2.2-6.2,3.3c-5.7,3.3-5.3,2.4-2.2,7.8c7.4,13.1,18.7,21.9,32.7,26.8
		c30.6,10.8,57.9,4.3,82.1-16.7c3.7-3.2,7-7.1,10.4-10.7C315.2,316.8,316.3,315.1,318.2,312.7z M273.7,367.6
		c-10.9-3.6-19.8-0.5-27.7,7c-0.2-0.2-0.4-0.4-0.5-0.6c1.8-2.4,3.7-4.7,5.5-7.1c-7.5-6.3-19.4-4.6-24.3,3.3
		C237.3,388.1,262.5,386.9,273.7,367.6z"/>
	<path id="XMLID_60_" class="st0" d="M253.3,291.7c4,0,9.8,0.7,15.3,3.3c6.8,3.3,10.3,8.6,9.7,15c-0.5,5.2-3.5,9-7.6,12
		c-4.5,3.4-9.7,5.1-15.3,5.8c-7.8,1-15.5,0.8-22.7-2.5c-5.1-2.3-9-5.8-10.4-11.4c-1.6-6.3,1.3-12.7,7.5-16.8
		C236.4,292.9,243.7,291.7,253.3,291.7z"/>
	<path id="XMLID_56_" class="st0" d="M245.2,283.1c4.2,0,8.1,0,11.7,0c0-6.3-0.2-12.3,0-18.3c0.4-10.3,1.7-20.4,5.9-29.9
		c1.1-2.4,2.5-4.8,4.2-6.7c3.5-4,8.1-3.7,11.3,0.7c3.1,4.3,4.2,9.4,4.8,14.5c1.6,15.2-1.4,29.3-9.8,42.2c-0.1,0.2-0.2,0.5-0.3,0.7
		c3,2.3,6.1,4.5,9.1,6.8c-0.1,0.2-0.2,0.5-0.3,0.7c-20.9-11.9-41.6-8.7-62.5,0.4c1.1-0.9,2.1-1.8,3.3-2.5c1.2-0.8,2.5-1.4,3.7-2
		c1.3-0.7,2.7-1.4,4.1-2.1c-0.1-0.4-0.2-0.8-0.3-1.1c-7.4-11.5-8.5-24.2-6.9-37.2c0.6-5,2.2-10,4-14.8c1-2.6,2.9-5.1,5-7.1
		c3.7-3.6,8.4-3.1,10.7,1.5c2.1,4.3,3.7,9.1,4.4,13.8C249.4,256.2,248.9,269.7,245.2,283.1z M245.1,270.7c0.3-1.7,0.6-2.8,0.6-3.9
		c-0.1-7.4,0-14.8-0.7-22.1c-0.4-4.5-1.7-9.1-3.4-13.3c-2.2-5.6-6.5-5.9-9.9-0.9c-1.1,1.6-2,3.4-2.6,5.2c-3.6,9.7-4.3,19.7-3.4,29.9
		c0.6,6.7,2.2,13.1,5.7,19c0.8,1.4,1.7,2.1,3.3,1c-0.7-1.9-1.5-3.5-1.9-5.3c-1.3-5.3-0.7-10.5,2.8-14.9c1-1.3,3.2-2.7,4.6-2.5
		c1.4,0.2,2.6,2.2,3.7,3.7C244.5,267.5,244.6,268.9,245.1,270.7z M269.5,285.4c1.1,1,1.9-0.4,2.6-1.7c9.5-15.7,10.9-32.4,6-49.8
		c-0.7-2.6-1.7-5.9-5.1-6.2c-3.7-0.4-5.1,2.8-6.5,5.5c-3.6,6.9-5.2,14.5-6.3,22.2c-0.7,4.9-0.9,9.8-1.4,14.8
		c1.2-1.2,1.6-2.4,2.3-3.5c1.1-1.9,2.6-3.4,5.1-3.1c2.3,0.3,3.4,2.1,4.1,4.1c0.2,0.7,0.5,1.4,0.5,2.1
		C270.5,274.8,270,279.7,269.5,285.4z"/>
	<path id="XMLID_55_" class="st0" d="M273.7,367.6c-11.1,19.3-36.3,20.5-47,2.6c4.9-7.9,16.8-9.5,24.3-3.3c-1.8,2.4-3.7,4.7-5.5,7.1
		c0.2,0.2,0.4,0.4,0.5,0.6C253.9,367.1,262.8,364,273.7,367.6z"/>
	<path id="XMLID_54_" class="st0" d="M245.1,270.7c-0.5-1.8-0.7-3.1-1.3-4.1c-1-1.4-2.3-3.5-3.7-3.7c-1.4-0.2-3.5,1.2-4.6,2.5
		c-3.5,4.4-4,9.5-2.8,14.9c0.4,1.8,1.2,3.5,1.9,5.3c-1.5,1.1-2.4,0.4-3.3-1c-3.5-5.9-5.1-12.3-5.7-19c-0.9-10.2-0.2-20.2,3.4-29.9
		c0.7-1.8,1.6-3.6,2.6-5.2c3.4-5,7.6-4.8,9.9,0.9c1.7,4.2,2.9,8.8,3.4,13.3c0.7,7.3,0.6,14.7,0.7,22.1
		C245.8,267.9,245.4,269,245.1,270.7z"/>
	<path id="XMLID_53_" class="st0" d="M269.5,285.4c0.5-5.7,1-10.7,1.4-15.6c0.1-0.7-0.3-1.4-0.5-2.1c-0.7-2-1.7-3.8-4.1-4.1
		c-2.5-0.4-4,1.2-5.1,3.1c-0.7,1.1-1.1,2.4-2.3,3.5c0.4-4.9,0.6-9.9,1.4-14.8c1.2-7.6,2.7-15.2,6.3-22.2c1.4-2.7,2.8-5.8,6.5-5.5
		c3.4,0.3,4.4,3.6,5.1,6.2c4.8,17.4,3.4,34.1-6,49.8C271.4,285,270.6,286.4,269.5,285.4z"/>
</g>
</svg>
