<!--?xml version="1.0" encoding="utf-8"?-->
<!-- Generator: Adobe Illustrator 19.0.0, SVG Export Plug-In . SVG Version: 6.00 Build 0)  -->
<svg version="1.1" id="Layer_1" xmlns="http://www.w3.org/2000/svg" xmlns:xlink="http://www.w3.org/1999/xlink" x="0px" y="0px" viewBox="0 0 500 500" style="" xml:space="preserve" class="">
<style type="text/css">
	.st0{fill:none;stroke:#231F20;stroke-width:1.3024;stroke-miterlimit:10;}
</style>
<g id="XMLID_2_">
	<path id="XMLID_80_" class="st0 OJAaToCk_0" d="M316.9,340.4c4.3-12.9,11.2-23.7,24.4-29.5c-7.4-3.8-12.2-3.5-26,1.4c0.3-1.3,0.4-2.2,0.7-3.1
		c9.5-24.6,0.8-54.8-20.6-70.4c-7.2-5.3-15.2-8.3-24.2-8.4c-12.5-0.1-19.8,5.5-23.1,17.6c-0.3,1-0.7,2-1.3,3.8
		c-1.8-1.5-3.3-2.5-4.7-3.7c-10.1-8.4-20.4-8.5-30.7-0.2c-25.5,20.8-27.9,61.2-4.9,86.1c1.9,2,4.4,3.4,6.6,5.1
		c-0.4,0.7-0.8,1.3-1.1,2c-10.7,0-21.4,0.1-32.1-0.2c-1.3,0-2.7-2.2-3.7-3.7c-3.8-5.8-6.7-12.2-11.2-17.3
		c-6.6-7.5-14.2-7.4-21.7-0.7c-7.2,6.5-11.4,14.7-12.8,24.2c-1,7,2.2,13.1,7.7,14.9c6.8,2.3,10.8-1.9,13.7-7
		c3.5-6.3,6.4-13,9.7-19.8c2.6,11.3-7.2,28.3-17.5,31.1c-6.5,1.8-11.2-1.6-15.6-6.1c-7.1,4-13.6,4-19.6-2.2
		c-0.9-0.9-3.5-0.7-5.1-0.2c-6.3,1.9-11.9,1.9-16.6-3.6c-0.9-1.1-3.4-1.1-5.2-1.1c-9.4,0-14.6-6.6-11.4-15.6
		c3.3-9.3,10-14.8,19.7-17.1c3.1-0.7,6.3-2.4,8.6-4.5c6.3-5.9,12.8-9.1,21.8-5.9c2.4,0.9,6-1.3,9-2.9c-17.4-7.5-29.1-19.6-34.3-37.3
		c-6.5-22.3-2.6-42.7,13.5-59.8c20.5-21.8,53.7-20.3,72.7,2.9c9.5,11.5,13.8,24.9,13.5,39.8c-0.1,2.6,0,5.2,0,8.6
		c25.2-25,55-35.4,90.9-30c-1.7-2.3-3-4.1-4.2-5.9c-10.1-14.5-13.8-30.3-9.3-47.5c7.9-30.4,39.8-45.7,68.9-33.1
		c20.8,9,32.8,25.5,35.2,47.9c2.1,19-4.6,35-20,46.8c-10.3,7.8-22.2,10.4-36.5,9.6c19.3,16.4,34,34.3,40,56.5
		c5.4,1.8,9.8,3.2,14.2,4.5c1.3,0.4,3,0.7,4.2,0.2c8.8-3.7,15.4-0.3,21.7,5.6c2.3,2.1,5.5,3.9,8.6,4.5c9.2,2.1,15.7,7.2,19.4,15.8
		c4.1,9.8-0.9,16.9-11.4,16.9c-1.8,0-4.2,0.8-5.4,2c-4.1,4-8.8,4.7-13.8,3.1c-3.7-1.2-6.4-1.6-9.7,1.7c-4.3,4.3-8.5,4-16.9,0.6
		c-11.7,9.3-20.9,7.6-28.5-5.6c-3.4-5.9-6.9-12-4.9-21.2c1.4,3.3,2.1,5.2,3.1,6.9c2.9,5.8,5.3,12,9.1,17.2c5.6,7.6,15,5.9,18.4-2.9
		c4.5-11.7-7.8-34.8-20.2-36.4c-4.1-0.5-9.9,1.4-12.7,4.3c-5,5.2-8.1,12.1-12.3,18.1c-1.2,1.8-3.3,2.9-5,4.4
		C317.8,341.4,317.3,340.9,316.9,340.4z M135,307.1c-2.3,0.6-3.5,0.9-4.8,1.3c-12.1,4.2-23.8,23.9-20.6,36.4c1,3.9,4.9,8,8.6,10.2
		c4,2.4,8.4-1.1,8-5.5c-1.1-12.4,4.4-22.1,12-31.1c1.4-1.7,3.4-4.8,2.8-6C139.7,310,136.8,308.6,135,307.1z M357.4,314.8
		c1.6,1.4,3.3,2.5,4.5,3.9c7.1,8.2,12.2,17.2,12,28.6c0,2.4,1,6.6,2.2,6.8c3,0.7,7.4,0.6,9.3-1.2c2.7-2.5,5-6.9,5-10.5
		c0.3-14.3-6.2-25.4-18.3-32.9C365.9,305.7,362.1,307.1,357.4,314.8z M381.8,308.8c-0.3,0.8-0.5,1.6-0.8,2.4c0.5,0.7,0.9,1.4,1.5,2
		c8.5,9.3,14.2,19.6,12.2,32.9c-0.2,1.2,1.1,3.2,2.3,3.8c7.6,3.9,14.5-0.5,13.8-9c-1-12.1-6.4-22.1-16.6-28.8
		C390.7,310,386,309.9,381.8,308.8z M119.2,311.4c-0.4-0.9-0.8-1.7-1.1-2.6c-4.4,1.3-9.5,1.7-13.2,4.2c-8.6,5.8-13.7,14.6-15.1,24.8
		c-0.5,3.8,0.4,9.6,3,11.6c2.7,2.2,8.1,1,13.5,1.3C102.4,333.6,109.2,321.9,119.2,311.4z M171,318.9c1.6-8.9,3.1-16.9,4.8-26
		c-10.4,8.5-21.8,12.1-34.9,12.1c2,2.9,3.5,5,5.1,7.4C155.7,308.6,163.7,312,171,318.9z M416,345c4.5,1.2,8.7,0.6,9.4-5.6
		c0.9-7.8-9-17.5-16.7-17.2C411.1,329.3,413.4,336.6,416,345z M91.5,321.2c-8.3,1.5-13.4,6.5-16,13.8c-0.9,2.5-0.6,6.6,1,8.3
		c1.6,1.8,5.4,1.6,7.4,2.1C86.7,336.6,89,329.3,91.5,321.2z"></path>
	<path id="XMLID_76_" class="st0 OJAaToCk_1" d="M259.2,321.5c3.3-1.2,6.1-2.3,8.2-3c-2.6-12-5.8-23.4-7.5-35.1c-0.9-6,0-12.6,1.6-18.6
		c2.2-8.1,8.2-9.3,14.1-3.3c8.7,9,12.4,20.3,13.1,32.5c0.4,7.5-0.6,15-1,22.9c2.8,1,6.2,2.3,9.6,3.6c0.1,0.6,0.2,1.2,0.3,1.7
		c-23.9-4.5-43.7,3.6-60.7,20.2c-0.4-0.7-0.8-1.3-1.2-2c1.2-1.5,2.2-3.3,3.6-4.6c1.6-1.5,3.4-2.6,5.7-4.3
		c-9.3-9.2-16-18.7-17.6-30.4c-1.1-8.4-0.7-17.2,0.1-25.7c0.3-2.7,3.8-6.6,6.3-7c2.6-0.5,6.6,1.9,8.5,4.3
		c8.7,10.7,12.8,23.5,15.1,36.9C258.2,313.4,258.6,317.1,259.2,321.5z M281.8,317.3c1.3-1.2,1.9-1.5,2.1-2
		c4.7-18.8,1.3-36.2-10.4-51.6c-3.9-5.1-7.9-3.8-9.3,2.8c-2.9,13-0.4,25.6,2.8,37.5c2.3-2.2,4.6-4.4,6.8-6.6c2,3.2,4.5,6.1,6,9.5
		C281,309.8,281,313.2,281.8,317.3z M247.1,328.7c0.4-0.4,0.8-0.8,1.3-1.2c-1.1-2.1-2.5-4.1-3.2-6.3c-0.9-2.4-1.5-5-1.7-7.5
		c-0.6-8.2,1.9-10.1,10-7.3c-2.1-11.4-5.6-22-12.6-31c-1.6-2.1-5.4-4.5-7.2-3.8c-2.1,0.8-4.1,4.5-4.3,7.2
		c-1.3,17.2,2.3,33.1,13.9,46.6C244.3,326.6,245.8,327.6,247.1,328.7z"></path>
	<path id="XMLID_75_" class="st0 OJAaToCk_2" d="M247.1,340.9c11.8-11.9,24.9-15.6,39.6-13.7c6.6,0.9,9.9,5.5,10.9,13.7
		C281.3,340.9,264.9,340.9,247.1,340.9z"></path>
	<path id="XMLID_74_" class="st0 OJAaToCk_3" d="M135,307.1c1.8,1.5,4.8,2.9,6.1,5.2c0.6,1.2-1.3,4.3-2.8,6c-7.6,9-13.2,18.7-12,31.1
		c0.4,4.4-4,7.9-8,5.5c-3.7-2.2-7.6-6.2-8.6-10.2c-3.2-12.4,8.5-32.1,20.6-36.4C131.4,308,132.7,307.7,135,307.1z"></path>
	<path id="XMLID_73_" class="st0 OJAaToCk_4" d="M357.4,314.8c4.7-7.8,8.5-9.2,14.8-5.3c12.1,7.5,18.6,18.6,18.3,32.9c-0.1,3.6-2.4,8-5,10.5
		c-1.9,1.8-6.4,1.8-9.3,1.2c-1.2-0.3-2.3-4.5-2.2-6.8c0.2-11.4-4.8-20.4-12-28.6C360.7,317.3,359,316.2,357.4,314.8z"></path>
	<path id="XMLID_72_" class="st0 OJAaToCk_5" d="M381.8,308.8c4.1,1.1,8.9,1.2,12.3,3.4c10.2,6.7,15.6,16.7,16.6,28.8c0.7,8.5-6.2,12.8-13.8,9
		c-1.2-0.6-2.5-2.7-2.3-3.8c2.1-13.3-3.7-23.6-12.2-32.9c-0.6-0.6-1-1.4-1.5-2C381.3,310.5,381.6,309.7,381.8,308.8z"></path>
	<path id="XMLID_71_" class="st0 OJAaToCk_6" d="M119.2,311.4c-10.1,10.5-16.8,22.3-13,39.3c-5.4-0.3-10.7,0.9-13.5-1.3c-2.5-2-3.5-7.8-3-11.6
		c1.4-10.2,6.5-19,15.1-24.8c3.7-2.5,8.8-2.9,13.2-4.2C118.5,309.6,118.9,310.5,119.2,311.4z"></path>
	<path id="XMLID_70_" class="st0 OJAaToCk_7" d="M171,318.9c-7.3-6.9-15.3-10.2-25-6.5c-1.6-2.3-3.1-4.4-5.1-7.4c13.1,0,24.5-3.6,34.9-12.1
		C174.1,302,172.6,310,171,318.9z"></path>
	<path id="XMLID_69_" class="st0 OJAaToCk_8" d="M416,345c-2.6-8.3-4.9-15.7-7.2-22.9c7.6-0.3,17.5,9.5,16.7,17.2
		C424.7,345.6,420.5,346.1,416,345z"></path>
	<path id="XMLID_68_" class="st0 OJAaToCk_9" d="M91.5,321.2c-2.5,8.1-4.8,15.4-7.6,24.2c-2-0.5-5.8-0.3-7.4-2.1c-1.6-1.7-1.8-5.9-1-8.3
		C78.1,327.7,83.2,322.7,91.5,321.2z"></path>
	<path id="XMLID_67_" class="st0 OJAaToCk_10" d="M281.8,317.3c-0.7-4.1-0.8-7.5-2-10.3c-1.5-3.4-3.9-6.4-6-9.5c-2.3,2.2-4.5,4.4-6.8,6.6
		c-3.2-11.9-5.7-24.5-2.8-37.5c1.5-6.6,5.5-7.9,9.3-2.8c11.7,15.4,15.1,32.7,10.4,51.6C283.7,315.7,283,316.1,281.8,317.3z"></path>
	<path id="XMLID_66_" class="st0 OJAaToCk_11" d="M247.1,328.7c-1.3-1.2-2.8-2.2-3.9-3.5c-11.6-13.4-15.3-29.3-13.9-46.6
		c0.2-2.6,2.2-6.4,4.3-7.2c1.8-0.6,5.5,1.8,7.2,3.8c7.1,9,10.5,19.6,12.6,31c-8.1-2.8-10.5-0.9-10,7.3c0.2,2.5,0.9,5.1,1.7,7.5
		c0.8,2.2,2.1,4.2,3.2,6.3C247.9,327.9,247.5,328.3,247.1,328.7z"></path>
</g>
<style data-made-with="vivus-instant">.OJAaToCk_0{stroke-dasharray:2506 2508;stroke-dashoffset:2507;}.start .OJAaToCk_0{animation:OJAaToCk_draw 2932ms linear 0ms forwards;}.OJAaToCk_1{stroke-dasharray:650 652;stroke-dashoffset:651;}.start .OJAaToCk_1{animation:OJAaToCk_draw 761ms linear 2932ms forwards;}.OJAaToCk_2{stroke-dasharray:114 116;stroke-dashoffset:115;}.start .OJAaToCk_2{animation:OJAaToCk_draw 134ms linear 3693ms forwards;}.OJAaToCk_3{stroke-dasharray:125 127;stroke-dashoffset:126;}.start .OJAaToCk_3{animation:OJAaToCk_draw 147ms linear 3828ms forwards;}.OJAaToCk_4{stroke-dasharray:125 127;stroke-dashoffset:126;}.start .OJAaToCk_4{animation:OJAaToCk_draw 147ms linear 3975ms forwards;}.OJAaToCk_5{stroke-dasharray:115 117;stroke-dashoffset:116;}.start .OJAaToCk_5{animation:OJAaToCk_draw 135ms linear 4122ms forwards;}.OJAaToCk_6{stroke-dasharray:117 119;stroke-dashoffset:118;}.start .OJAaToCk_6{animation:OJAaToCk_draw 138ms linear 4258ms forwards;}.OJAaToCk_7{stroke-dasharray:101 103;stroke-dashoffset:102;}.start .OJAaToCk_7{animation:OJAaToCk_draw 119ms linear 4396ms forwards;}.OJAaToCk_8{stroke-dasharray:64 66;stroke-dashoffset:65;}.start .OJAaToCk_8{animation:OJAaToCk_draw 76ms linear 4515ms forwards;}.OJAaToCk_9{stroke-dasharray:65 67;stroke-dashoffset:66;}.start .OJAaToCk_9{animation:OJAaToCk_draw 77ms linear 4591ms forwards;}.OJAaToCk_10{stroke-dasharray:141 143;stroke-dashoffset:142;}.start .OJAaToCk_10{animation:OJAaToCk_draw 166ms linear 4669ms forwards;}.OJAaToCk_11{stroke-dasharray:140 142;stroke-dashoffset:141;}.start .OJAaToCk_11{animation:OJAaToCk_draw 164ms linear 4835ms forwards;}@keyframes OJAaToCk_draw{100%{stroke-dashoffset:0;}}@keyframes OJAaToCk_fade{0%{stroke-opacity:1;}95.65217391304348%{stroke-opacity:1;}100%{stroke-opacity:0;}}</style></svg>
